<mxfile host="app.diagrams.net" modified="2023-10-24T18:51:23.191Z" agent="Mozilla/5.0 (Windows NT 10.0; Win64; x64; rv:109.0) Gecko/20100101 Firefox/118.0" etag="dNHSznE9U4GLJCoU1AF6" version="22.0.6" type="device">
  <diagram name="Page-1" id="gKAhGrzATQMKyD-7I8py">
    <mxGraphModel dx="1195" dy="637" grid="1" gridSize="10" guides="1" tooltips="1" connect="1" arrows="1" fold="1" page="1" pageScale="1" pageWidth="827" pageHeight="1169" math="0" shadow="0">
      <root>
        <mxCell id="0" />
        <mxCell id="1" parent="0" />
        <mxCell id="lkHt8-GMhmf5bKzHWLbN-10" value="" style="rounded=1;whiteSpace=wrap;html=1;fillColor=none;dashed=1;" parent="1" vertex="1">
          <mxGeometry x="270" y="60" width="260" height="260" as="geometry" />
        </mxCell>
        <mxCell id="lkHt8-GMhmf5bKzHWLbN-5" style="edgeStyle=orthogonalEdgeStyle;rounded=0;orthogonalLoop=1;jettySize=auto;html=1;entryX=0.5;entryY=1;entryDx=0;entryDy=0;" parent="1" source="lkHt8-GMhmf5bKzHWLbN-3" target="lkHt8-GMhmf5bKzHWLbN-4" edge="1">
          <mxGeometry relative="1" as="geometry" />
        </mxCell>
        <mxCell id="lkHt8-GMhmf5bKzHWLbN-3" value="" style="rounded=1;whiteSpace=wrap;html=1;fillColor=#dae8fc;strokeColor=#6c8ebf;" parent="1" vertex="1">
          <mxGeometry x="320" y="220" width="160" height="90" as="geometry" />
        </mxCell>
        <mxCell id="lkHt8-GMhmf5bKzHWLbN-4" value="" style="rounded=1;whiteSpace=wrap;html=1;fillColor=#ffe6cc;strokeColor=#d79b00;" parent="1" vertex="1">
          <mxGeometry x="320" y="70" width="160" height="100" as="geometry" />
        </mxCell>
        <mxCell id="lkHt8-GMhmf5bKzHWLbN-13" value="Back-end" style="text;html=1;align=center;verticalAlign=middle;resizable=0;points=[];autosize=1;strokeColor=none;fillColor=none;" parent="1" vertex="1">
          <mxGeometry x="360" y="30" width="80" height="30" as="geometry" />
        </mxCell>
        <mxCell id="lkHt8-GMhmf5bKzHWLbN-16" value="" style="endArrow=classic;html=1;rounded=0;entryX=0;entryY=0.5;entryDx=0;entryDy=0;" parent="1" target="lkHt8-GMhmf5bKzHWLbN-3" edge="1">
          <mxGeometry width="50" height="50" relative="1" as="geometry">
            <mxPoint x="170" y="265" as="sourcePoint" />
            <mxPoint x="390" y="200" as="targetPoint" />
          </mxGeometry>
        </mxCell>
        <mxCell id="lkHt8-GMhmf5bKzHWLbN-17" value="" style="rounded=1;whiteSpace=wrap;html=1;fillColor=none;dashed=1;" parent="1" vertex="1">
          <mxGeometry x="620" y="60" width="260" height="120" as="geometry" />
        </mxCell>
        <mxCell id="lkHt8-GMhmf5bKzHWLbN-18" value="Wikidata Web Services" style="text;html=1;align=center;verticalAlign=middle;resizable=0;points=[];autosize=1;strokeColor=none;fillColor=none;" parent="1" vertex="1">
          <mxGeometry x="677" y="30" width="150" height="30" as="geometry" />
        </mxCell>
        <mxCell id="lkHt8-GMhmf5bKzHWLbN-19" value="&lt;div&gt;in-memory index&lt;/div&gt;&lt;div&gt;(cls + props)&lt;br&gt;&lt;/div&gt;" style="rounded=1;whiteSpace=wrap;html=1;fillColor=#E1F5E0;strokeColor=#82b366;" parent="1" vertex="1">
          <mxGeometry x="340" y="120" width="120" height="40" as="geometry" />
        </mxCell>
        <mxCell id="lkHt8-GMhmf5bKzHWLbN-20" value="&lt;div&gt;SearchEntities&lt;/div&gt;&lt;div&gt;(Full-text search)&lt;br&gt;&lt;/div&gt;" style="rounded=1;whiteSpace=wrap;html=1;fillColor=#f5f5f5;fontColor=#333333;strokeColor=#666666;" parent="1" vertex="1">
          <mxGeometry x="690" y="90" width="120" height="60" as="geometry" />
        </mxCell>
        <mxCell id="lkHt8-GMhmf5bKzHWLbN-21" style="edgeStyle=orthogonalEdgeStyle;rounded=0;orthogonalLoop=1;jettySize=auto;html=1;exitX=0.5;exitY=1;exitDx=0;exitDy=0;" parent="1" source="lkHt8-GMhmf5bKzHWLbN-17" target="lkHt8-GMhmf5bKzHWLbN-17" edge="1">
          <mxGeometry relative="1" as="geometry" />
        </mxCell>
        <mxCell id="lkHt8-GMhmf5bKzHWLbN-22" style="edgeStyle=orthogonalEdgeStyle;rounded=0;orthogonalLoop=1;jettySize=auto;html=1;entryX=0;entryY=0.5;entryDx=0;entryDy=0;dashed=1;" parent="1" source="lkHt8-GMhmf5bKzHWLbN-4" target="lkHt8-GMhmf5bKzHWLbN-20" edge="1">
          <mxGeometry relative="1" as="geometry">
            <mxPoint x="410" y="240" as="sourcePoint" />
            <mxPoint x="410" y="160" as="targetPoint" />
          </mxGeometry>
        </mxCell>
        <mxCell id="lkHt8-GMhmf5bKzHWLbN-41" value="SPARQL" style="text;html=1;align=center;verticalAlign=middle;resizable=0;points=[];autosize=1;strokeColor=none;fillColor=none;" parent="1" vertex="1">
          <mxGeometry x="620" y="90" width="70" height="30" as="geometry" />
        </mxCell>
        <mxCell id="lkHt8-GMhmf5bKzHWLbN-57" value="HTTP" style="text;html=1;align=center;verticalAlign=middle;resizable=0;points=[];autosize=1;strokeColor=none;fillColor=none;" parent="1" vertex="1">
          <mxGeometry x="414" y="170" width="50" height="30" as="geometry" />
        </mxCell>
        <mxCell id="lkHt8-GMhmf5bKzHWLbN-87" style="edgeStyle=orthogonalEdgeStyle;rounded=0;orthogonalLoop=1;jettySize=auto;html=1;entryX=0;entryY=0.5;entryDx=0;entryDy=0;dashed=1;exitX=1;exitY=0.5;exitDx=0;exitDy=0;" parent="1" source="lkHt8-GMhmf5bKzHWLbN-3" target="lkHt8-GMhmf5bKzHWLbN-20" edge="1">
          <mxGeometry relative="1" as="geometry">
            <mxPoint x="490" y="130" as="sourcePoint" />
            <mxPoint x="700" y="130" as="targetPoint" />
          </mxGeometry>
        </mxCell>
        <mxCell id="lkHt8-GMhmf5bKzHWLbN-88" value="?" style="text;html=1;align=center;verticalAlign=middle;resizable=0;points=[];autosize=1;strokeColor=none;fillColor=none;" parent="1" vertex="1">
          <mxGeometry x="570" y="90" width="30" height="30" as="geometry" />
        </mxCell>
        <mxCell id="VH7htGFN--wHyrk-15Wv-1" value="&lt;div&gt;in memory&lt;/div&gt;&lt;div&gt;data&lt;br&gt;&lt;/div&gt;" style="rounded=1;whiteSpace=wrap;html=1;fillColor=#A6B5A5;strokeColor=#82b366;" vertex="1" parent="1">
          <mxGeometry x="350" y="260" width="100" height="40" as="geometry" />
        </mxCell>
        <mxCell id="VH7htGFN--wHyrk-15Wv-2" value="&lt;div&gt;Full-text search&lt;/div&gt;&lt;div&gt;service&lt;br&gt;&lt;/div&gt;" style="text;html=1;strokeColor=none;fillColor=none;align=center;verticalAlign=middle;whiteSpace=wrap;rounded=0;" vertex="1" parent="1">
          <mxGeometry x="355" y="80" width="90" height="30" as="geometry" />
        </mxCell>
        <mxCell id="VH7htGFN--wHyrk-15Wv-3" value="Backend" style="text;html=1;strokeColor=none;fillColor=none;align=center;verticalAlign=middle;whiteSpace=wrap;rounded=0;" vertex="1" parent="1">
          <mxGeometry x="355" y="220" width="90" height="30" as="geometry" />
        </mxCell>
      </root>
    </mxGraphModel>
  </diagram>
</mxfile>
